<svg width="1024" height="1024" viewBox="0 0 1024 1024" fill="none" xmlns="http://www.w3.org/2000/svg">
<rect width="1024" height="1024" rx="512" fill="#123456"/>
<path d="M460.562 711H214.802V669.016L309.01 573.272C327.442 554.499 342.802 538.285 355.09 524.632C367.378 510.637 376.594 497.325 382.738 484.696C388.882 471.725 391.954 457.731 391.954 442.712C391.954 423.939 386.493 409.944 375.57 400.728C364.647 391.171 350.482 386.392 333.074 386.392C316.349 386.392 301.33 389.635 288.018 396.12C274.706 402.264 260.882 410.968 246.546 422.232L217.362 385.88C227.261 377.347 237.842 369.667 249.106 362.84C260.711 356.013 273.511 350.552 287.506 346.456C301.842 342.36 317.543 340.312 334.61 340.312C357.821 340.312 377.789 344.408 394.514 352.6C411.239 360.451 424.039 371.715 432.914 386.392C442.13 401.069 446.738 418.307 446.738 438.104C446.738 452.781 444.519 466.605 440.082 479.576C435.645 492.205 429.159 504.664 420.626 516.952C412.434 529.24 402.365 541.699 390.418 554.328C378.471 566.957 365.33 580.269 350.994 594.264L282.898 660.312V662.872H460.562V711ZM773.53 716.12C753.391 716.12 737.861 710.317 726.938 698.712C716.357 687.107 711.066 669.528 711.066 645.976V476.504H604.058V711H550.298V476.504H493.466V435.032H820.122V476.504H764.826V642.904C764.826 653.827 767.045 661.507 771.482 665.944C775.919 670.381 781.551 672.6 788.378 672.6C793.498 672.6 798.106 672.088 802.202 671.064C806.639 669.699 810.394 668.163 813.466 666.456V707.416C810.053 709.464 804.591 711.341 797.082 713.048C789.914 715.096 782.063 716.12 773.53 716.12Z" fill="white"/>
</svg>
