<svg width="1024" height="1024" viewBox="0 0 1024 1024" fill="none" xmlns="http://www.w3.org/2000/svg">
<rect width="1024" height="1024" rx="512" fill="#123456"/>
<path d="M491.894 822L343.094 562V519.6H369.494C395.094 519.6 416.96 516.933 435.094 511.6C453.227 506.267 467.627 497.733 478.294 486C488.96 473.733 495.627 458 498.294 438.8H343.094V385.2H497.494C493.76 367.067 486.827 352.133 476.694 340.4C466.56 328.133 452.96 319.067 435.894 313.2C418.827 307.333 398.294 304.4 374.294 304.4H343.094V250.8H683.094V304.4H539.094C550.294 314.533 559.627 326.267 567.094 339.6C574.56 352.933 579.36 368.133 581.494 385.2H683.094V438.8H583.094C579.36 477.733 564.427 508.133 538.294 530C512.694 551.867 479.094 566 437.494 572.4L591.894 822H491.894Z" fill="white"/>
</svg>
